# xmcd CD database file
# Copyright (C) 1995-1998 Ti Kan
#
# Track frame offsets:
#	150
#	12662
#	25573
#	37535
#	51267
#	65053
#	78137
#	103880
#	118273
#	130979
#	143707
#	155961
#	170894
#	184885
#	198591
#	209944
#	220828
#	232561
#	244458
#	257622
#	270785
#
# Disc length: 3783 seconds
#
# Revision: 1
# Processed by: cddbd v1.4PL0 Copyright (c) Steve Scherf et al.
# Submitted via: CDex 1.30Release
#
DISCID=370ec515
DTITLE=Tiny Grimes - The Complete 1944-1950 Vol.2 (1947-1950)
DYEAR=1995
DGENRE=Blues
TTITLE0=Profoundly Blue
TTITLE1=Blue Harlem
TTITLE2=That Old Black Magic
TTITLE3=Boogie Woogie Barbecue
TTITLE4=Annie Laurie
TTITLE5=Hot in Harlem (Movin' Out)
TTITLE6=Flying High (High Flyin')
TTITLE7=Nightmare Blues (Red's Blues)
TTITLE8=Midnight Special (See See Rider)
TTITLE9=See See Rider
TTITLE10=Jealousy
TTITLE11=Sidewalks of New York
TTITLE12=Rock the House
TTITLE13=Jumpin' at Gleason's
TTITLE14=Thing's Ain't What They Used To Be
TTITLE15=Drivin' and Jivin'
TTITLE16=I'm In Love With You Baby
TTITLE17=I'm In Love With You Baby 2
TTITLE18=Frankie and Johnny Boogie
TTITLE19=Frankie and Johnny Boogie 2
TTITLE20=Frankie and Johnny Boogie 3
EXTD=YEAR: 1995 ID3G:   0
EXTT0=
EXTT1=
EXTT2=
EXTT3=
EXTT4=
EXTT5=
EXTT6=
EXTT7=
EXTT8=
EXTT9=
EXTT10=
EXTT11=
EXTT12=
EXTT13=
EXTT14=
EXTT15=
EXTT16=
EXTT17=
EXTT18=
EXTT19=
EXTT20=
PLAYORDER=
